<?xml version="1.0" encoding="UTF-8"?>
<svg xmlns="http://www.w3.org/2000/svg" version="1.1" viewBox="0 0 19 17.25">
  <defs>
    <style>
      .cls-1 {
        fill: #015392;
      }

      .cls-2 {
        fill: #a1cdf0;
      }

      .cls-3 {
        fill: #001c31;
      }

      .cls-4 {
        fill: #6caee3;
      }
    </style>
  </defs>
  <!-- Generator: Adobe Illustrator 28.6.0, SVG Export Plug-In . SVG Version: 1.2.0 Build 709)  -->
  <g>
    <g id="Layer_1">
      <g>
        <g>
          <path class="cls-2" d="M7.28,16.12h.71V4.44c0-1.51,1.35-2.73,3-2.73h2.67c1.65,0,3,1.23,3,2.73v11.68h.71V4.44c0-1.9-1.67-3.45-3.71-3.45h-2.67c-2.05,0-3.71,1.55-3.71,3.45v11.68Z"/>
          <rect class="cls-2" x="7.69" y="6.17" width="9.27" height=".71"/>
          <polygon class="cls-2" points="15.93 16.28 18.08 16.28 17.79 15.42 16.22 15.42 15.93 16.28"/>
          <polygon class="cls-2" points="6.54 16.28 8.69 16.28 8.4 15.42 6.83 15.42 6.54 16.28"/>
        </g>
        <g>
          <path class="cls-2" d="M10.3,5.71c-.22.29-.43.57-.65.86-.51.69-1.03,1.37-1.54,2.05-.62.83-1.25,1.67-1.87,2.5-.54.72-1.07,1.43-1.61,2.15-.26.35-.52.7-.78,1.05,0,0,0,0-.01.01-.08.11-.26,0-.18-.1.22-.29.43-.57.65-.86.51-.68,1.03-1.37,1.54-2.05.62-.83,1.25-1.67,1.87-2.5.54-.72,1.07-1.43,1.61-2.15.26-.35.52-.7.78-1.05h.01c.08-.12.26-.02.18.09h0Z"/>
          <path class="cls-2" d="M6.31,4.61c.05.36.1.71.15,1.07.12.85.24,1.69.36,2.54.15,1.03.3,2.06.44,3.09.13.89.25,1.77.38,2.66.06.43.13.86.19,1.3,0,0,0,.01,0,.02,0,.06-.01.11-.07.13-.05.01-.12-.02-.13-.07-.05-.36-.1-.71-.15-1.07-.12-.85-.24-1.69-.36-2.54-.15-1.03-.3-2.06-.44-3.09-.13-.89-.25-1.77-.38-2.66-.06-.43-.12-.86-.19-1.3v-.02c-.01-.06.01-.11.07-.13.05-.01.12.02.13.07h0Z"/>
          <path class="cls-2" d="M2.72,6.66c.29.22.57.43.86.65.68.51,1.37,1.03,2.05,1.54.83.62,1.67,1.25,2.5,1.87.72.54,1.43,1.07,2.15,1.61.35.26.7.52,1.05.78,0,0,0,0,.01.01.11.08,0,.26-.1.18-.29-.22-.57-.43-.86-.65-.68-.51-1.37-1.03-2.05-1.54-.83-.62-1.67-1.25-2.5-1.87-.72-.54-1.43-1.07-2.15-1.61-.35-.26-.7-.52-1.05-.78,0,0,0,0-.01-.01-.11-.08,0-.26.1-.18h0Z"/>
          <path class="cls-2" d="M1.76,8.65c.35.08.7.16,1.05.24.83.19,1.67.39,2.5.58,1.01.24,2.03.47,3.04.71.87.2,1.74.41,2.61.61.29.07.57.13.86.2.14.03.28.06.41.1,0,0,.01,0,.02,0,.13.03.07.23-.06.2-.35-.08-.7-.16-1.05-.24-.83-.19-1.67-.39-2.5-.58-1.01-.24-2.03-.47-3.04-.71-.87-.2-1.74-.41-2.61-.61l-.86-.2c-.14-.03-.28-.06-.41-.1,0,0-.01,0-.02,0-.13-.03-.07-.23.06-.2h0Z"/>
          <path class="cls-2" d="M2.35,12.73c.3-.19.61-.38.91-.57.73-.45,1.45-.9,2.18-1.36.88-.55,1.77-1.1,2.65-1.65.76-.47,1.52-.95,2.28-1.42.37-.23.73-.48,1.11-.69,0,0,0,0,.01,0,.11-.07.22.11.1.18-.3.19-.61.38-.91.57-.73.45-1.45.9-2.18,1.36-.88.55-1.77,1.1-2.65,1.65-.76.47-1.52.95-2.28,1.42-.37.23-.73.48-1.11.69,0,0,0,0-.01,0-.11.07-.22-.11-.1-.18h0Z"/>
          <path class="cls-2" d="M5.66,15.19c.08-.35.16-.7.24-1.05.19-.83.39-1.67.58-2.5.24-1.01.47-2.03.71-3.04l.61-2.61c.07-.29.13-.57.2-.86.03-.14.06-.28.1-.41,0,0,0-.01,0-.02.03-.13.23-.07.2.06-.08.35-.16.7-.24,1.05-.19.83-.39,1.67-.58,2.5-.24,1.01-.47,2.03-.71,3.04l-.61,2.61c-.07.29-.13.57-.2.86-.03.14-.06.28-.1.41,0,0,0,.01,0,.02-.03.13-.23.07-.2-.06h0Z"/>
          <path class="cls-1" d="M5.49,9.98c0,.79.64,1.42,1.42,1.42s1.42-.64,1.42-1.42-.64-1.42-1.42-1.42-1.42.64-1.42,1.42Z"/>
          <path class="cls-4" d="M5.69,9.98c0,.67.55,1.22,1.22,1.22s1.22-.54,1.22-1.22-.55-1.22-1.22-1.22-1.22.54-1.22,1.22Z"/>
          <path class="cls-1" d="M6.53,9.98c0,.21.17.38.38.38s.38-.17.38-.38-.17-.38-.38-.38-.38.17-.38.38Z"/>
          <path class="cls-1" d="M.61,9.98c0,3.48,2.82,6.3,6.3,6.3s6.3-2.82,6.3-6.3-2.82-6.3-6.3-6.3S.61,6.5.61,9.98ZM1.51,9.98c0-2.98,2.42-5.4,5.4-5.4s5.4,2.42,5.4,5.4-2.42,5.4-5.4,5.4S1.51,12.96,1.51,9.98Z"/>
          <path class="cls-3" d="M6.91,15.27c1.1,0,2.18-.34,3.07-.98.86-.61,1.53-1.49,1.9-2.48.38-1.05.43-2.21.12-3.28-.29-1.03-.9-1.95-1.72-2.63-.83-.69-1.88-1.11-2.95-1.19-1.1-.08-2.21.18-3.15.75-.91.55-1.64,1.38-2.08,2.34-.46,1.01-.59,2.16-.36,3.25.22,1.05.75,2.01,1.52,2.76.78.75,1.78,1.24,2.85,1.41.27.04.54.06.81.06.13,0,.13.21,0,.21-1.14,0-2.26-.35-3.19-1.02-.9-.65-1.6-1.56-1.98-2.6-.39-1.08-.44-2.28-.12-3.39.3-1.06.93-2.03,1.79-2.73.87-.72,1.95-1.16,3.08-1.24,1.14-.09,2.3.19,3.28.78.94.57,1.7,1.43,2.16,2.43.47,1.05.61,2.24.38,3.37-.22,1.09-.78,2.11-1.59,2.88-.81.77-1.85,1.29-2.96,1.46-.28.04-.56.06-.84.06-.13,0-.13-.21,0-.21Z"/>
          <path class="cls-3" d="M12.48,7.79l1.01.03c.09,0,.16-.05.16-.13v-.3c.01-.07-.06-.13-.14-.14l-.65-.02h-.37c-.09-.01-.16.04-.16.12v.3c-.01.07.06.14.14.14Z"/>
          <path class="cls-3" d="M12.17,6.02c.34.11.68.23,1.02.36.26.1.53.21.78.34.18.09.39.2.52.37.11.15.07.31-.09.41-.1.06-.22.09-.34.11-.2.04-.4.06-.6.07-.88.05-1.78-.15-2.45-.73-.2-.18-.38-.38-.53-.61-.08-.12-.15-.25-.2-.38,0,0,0-.01,0-.02-.04-.13.16-.18.2-.06,0,0,0,.01,0,.02,0,0,0,.01,0,.02,0,.02-.01-.02,0,0,.03.06.06.12.09.17.11.2.23.36.39.52.53.55,1.26.81,2.01.85.25.01.5,0,.75-.02.15-.02.3-.04.44-.08.06-.02.08-.03.12-.05.02,0,.03-.02.04-.03-.02.02.01-.01.02-.02-.01.02,0-.01,0,0,0,.02,0,0,0,0,0-.02,0,0,0,0,0,0,0-.02,0-.02,0,0,0,.02,0,0-.01-.03.01.01,0-.02,0-.01-.02-.03-.02-.04.02.02-.02-.02-.02-.03-.01-.01-.03-.03-.04-.04,0,0-.02-.01-.03-.02-.02-.02,0,0-.01-.01-.08-.06-.17-.12-.27-.17-.23-.12-.46-.23-.7-.32-.36-.15-.73-.27-1.1-.39,0,0-.01,0-.02,0-.13-.04-.07-.24.06-.2h0Z"/>
        </g>
      </g>
    </g>
  </g>
</svg>