<?xml version="1.0" encoding="UTF-8"?>
<svg id="Layer_1" data-name="Layer 1" xmlns="http://www.w3.org/2000/svg" viewBox="0 0 106.52 111.86">
  <defs>
    <style>
      .cls-1 {
        fill: #64737a;
      }

      .cls-1, .cls-2 {
        stroke-width: 0px;
      }

      .cls-2 {
        fill: #f1f5f9;
      }
    </style>
  </defs>
  <rect class="cls-2" x="-72.53" y="-59.83" width="1337.04" height="740.11"/>
  <g>
    <path class="cls-1" d="M52.36,95.26c-20.13,0-36.51-16.38-36.51-36.51S32.23,22.24,52.36,22.24s36.51,16.38,36.51,36.51-16.38,36.51-36.51,36.51ZM52.36,25.03c-18.59,0-33.72,15.13-33.72,33.72s15.13,33.72,33.72,33.72,33.72-15.13,33.72-33.72-15.13-33.72-33.72-33.72Z"/>
    <path class="cls-1" d="M52.36,25.03c-3.08,0-5.58-2.5-5.58-5.58,0-.77.63-1.4,1.4-1.4s1.4.63,1.4,1.4c0,1.54,1.25,2.79,2.79,2.79s2.79-1.25,2.79-2.79c0-.77.63-1.4,1.4-1.4s1.4.63,1.4,1.4c0,3.08-2.5,5.58-5.58,5.58Z"/>
    <path class="cls-1" d="M44.19,25.89c-2.58,0-4.9-1.8-5.46-4.42-.16-.75.32-1.5,1.08-1.66.75-.17,1.5.32,1.66,1.08.32,1.5,1.81,2.46,3.31,2.15.73-.16,1.35-.58,1.76-1.21.4-.62.54-1.37.39-2.1-.16-.75.32-1.5,1.07-1.66.75-.16,1.5.32,1.66,1.07.31,1.46.03,2.95-.78,4.2-.81,1.25-2.06,2.11-3.52,2.42-.39.08-.78.12-1.16.12Z"/>
    <path class="cls-1" d="M36.38,28.43c-2.14,0-4.18-1.23-5.1-3.31-.31-.7,0-1.53.71-1.84.7-.31,1.53,0,1.84.71.63,1.4,2.28,2.04,3.68,1.41.68-.3,1.2-.85,1.47-1.55.27-.7.25-1.45-.06-2.13-.31-.7,0-1.53.71-1.84.7-.31,1.53,0,1.84.71.61,1.36.65,2.88.11,4.27-.53,1.39-1.58,2.49-2.94,3.1-.74.33-1.5.48-2.26.48Z"/>
    <path class="cls-1" d="M29.27,32.54c-1.73,0-3.43-.8-4.52-2.3-.45-.62-.31-1.5.31-1.95.63-.45,1.5-.31,1.95.31.9,1.24,2.65,1.52,3.89.62,1.24-.9,1.52-2.65.62-3.89-.45-.62-.31-1.5.31-1.95.63-.45,1.5-.31,1.95.31,1.81,2.49,1.25,5.99-1.23,7.79-.99.72-2.14,1.06-3.27,1.06Z"/>
    <path class="cls-1" d="M23.15,38.04c-1.38,0-2.69-.5-3.73-1.43-.57-.52-.62-1.4-.1-1.97.52-.57,1.4-.62,1.97-.1.55.5,1.29.75,2.01.71.74-.04,1.43-.36,1.93-.92.5-.55.75-1.27.71-2.01-.04-.74-.37-1.43-.92-1.93-.57-.52-.62-1.4-.1-1.97.52-.57,1.4-.62,1.97-.1,2.29,2.06,2.47,5.59.41,7.88-1,1.11-2.37,1.76-3.85,1.84-.1,0-.2,0-.3,0Z"/>
    <path class="cls-1" d="M18.32,44.68c-.95,0-1.9-.24-2.78-.75-.67-.39-.9-1.24-.51-1.91.38-.67,1.24-.9,1.91-.51,1.33.77,3.04.31,3.81-1.02.77-1.33.31-3.04-1.02-3.81-.67-.39-.9-1.24-.51-1.91.39-.67,1.24-.9,1.91-.51,2.66,1.54,3.58,4.96,2.04,7.62-1.03,1.79-2.91,2.79-4.84,2.79Z"/>
    <path class="cls-1" d="M14.99,52.19c-.58,0-1.16-.09-1.73-.28-.73-.24-1.13-1.03-.9-1.76.24-.73,1.03-1.13,1.76-.9.71.23,1.46.17,2.13-.17.66-.34,1.15-.91,1.38-1.62.23-.71.17-1.46-.17-2.13-.34-.66-.91-1.15-1.62-1.38-.73-.24-1.14-1.03-.9-1.76.24-.73,1.03-1.13,1.76-.9,1.42.46,2.57,1.45,3.25,2.77.68,1.33.8,2.84.33,4.26-.46,1.42-1.45,2.57-2.77,3.25-.8.41-1.66.61-2.53.61Z"/>
    <path class="cls-1" d="M13.28,60.22c-.19,0-.39-.01-.59-.03-.77-.08-1.32-.77-1.24-1.53.08-.77.78-1.31,1.53-1.24,1.53.17,2.9-.95,3.06-2.48.16-1.53-.95-2.9-2.48-3.06-.77-.08-1.32-.77-1.24-1.54.08-.77.77-1.32,1.54-1.24,3.06.32,5.29,3.07,4.97,6.13-.3,2.86-2.73,5-5.55,5Z"/>
    <path class="cls-1" d="M13.71,68.41c-.71,0-1.31-.53-1.39-1.25-.08-.77.48-1.45,1.24-1.53,1.53-.16,2.64-1.53,2.48-3.06-.08-.74-.44-1.41-1.02-1.87-.58-.47-1.3-.69-2.04-.61-.77.07-1.45-.48-1.54-1.24-.08-.77.48-1.45,1.24-1.54,1.48-.16,2.94.28,4.09,1.21,1.16.94,1.88,2.27,2.04,3.75.16,1.48-.28,2.94-1.21,4.09-.94,1.16-2.27,1.88-3.75,2.04-.05,0-.1,0-.15,0Z"/>
    <path class="cls-1" d="M16.28,76.27c-.59,0-1.14-.37-1.33-.96-.24-.73.16-1.52.9-1.76,1.46-.48,2.26-2.05,1.79-3.51-.47-1.46-2.05-2.27-3.51-1.79-.73.24-1.52-.16-1.76-.9-.24-.73.16-1.52.9-1.76,2.93-.95,6.08.66,7.03,3.58.46,1.42.34,2.93-.33,4.26-.68,1.33-1.83,2.31-3.25,2.77-.14.05-.29.07-.43.07Z"/>
    <path class="cls-1" d="M20.42,83.42c-.48,0-.95-.25-1.21-.7-.39-.67-.16-1.52.51-1.91,1.33-.77,1.79-2.48,1.02-3.81-.37-.64-.97-1.11-1.69-1.3-.72-.19-1.47-.1-2.11.28-.67.39-1.52.16-1.91-.51-.39-.67-.16-1.52.51-1.91,1.29-.75,2.79-.94,4.23-.56,1.44.39,2.64,1.31,3.39,2.6,1.54,2.66.62,6.08-2.04,7.62-.22.13-.46.19-.7.19Z"/>
    <path class="cls-1" d="M25.96,89.55c-.38,0-.76-.16-1.04-.46-.52-.57-.47-1.46.1-1.97.55-.5.88-1.18.92-1.92.04-.74-.21-1.46-.71-2.01-1.03-1.14-2.79-1.24-3.94-.21-.57.52-1.45.47-1.97-.1-.52-.57-.47-1.46.1-1.97,2.29-2.06,5.82-1.87,7.88.41,2.06,2.29,1.87,5.82-.41,7.88-.27.24-.6.36-.93.36Z"/>
    <path class="cls-1" d="M32.64,94.4c-.28,0-.57-.09-.82-.27-.62-.45-.76-1.33-.31-1.95.44-.6.61-1.34.5-2.07-.12-.73-.51-1.38-1.11-1.82-1.24-.9-2.99-.63-3.89.62-.45.62-1.33.76-1.95.31-.62-.45-.76-1.33-.31-1.95,1.81-2.49,5.31-3.04,7.79-1.23,1.21.88,2,2.17,2.23,3.64.23,1.47-.12,2.95-1,4.15-.27.38-.7.58-1.13.58Z"/>
    <path class="cls-1" d="M40.2,97.75c-.19,0-.38-.04-.57-.12-.7-.31-1.02-1.14-.71-1.84.62-1.4,0-3.05-1.41-3.68-1.41-.63-3.05.01-3.68,1.41-.31.71-1.14,1.02-1.84.71-.7-.31-1.02-1.14-.71-1.84,1.25-2.81,4.56-4.08,7.37-2.83,2.81,1.25,4.08,4.56,2.83,7.37-.23.52-.74.83-1.28.83Z"/>
    <path class="cls-1" d="M48.28,99.45c-.1,0-.19-.01-.29-.03-.75-.16-1.24-.9-1.07-1.66.32-1.5-.64-2.98-2.15-3.3-1.5-.32-2.99.64-3.3,2.15-.16.75-.91,1.24-1.66,1.08-.75-.16-1.24-.9-1.08-1.66.64-3.01,3.61-4.94,6.62-4.3,3.01.64,4.94,3.61,4.3,6.62-.14.66-.72,1.11-1.36,1.11Z"/>
    <path class="cls-1" d="M56.54,99.44c-.77,0-1.4-.63-1.4-1.4,0-1.54-1.25-2.79-2.79-2.79s-2.79,1.25-2.79,2.79c0,.77-.63,1.4-1.4,1.4s-1.4-.63-1.4-1.4c0-3.08,2.5-5.58,5.58-5.58s5.58,2.5,5.58,5.58c0,.77-.63,1.4-1.4,1.4Z"/>
    <path class="cls-1" d="M56.44,99.45c-.64,0-1.22-.45-1.36-1.11-.64-3.01,1.29-5.98,4.3-6.62,1.46-.31,2.95-.03,4.2.78,1.25.81,2.11,2.06,2.42,3.52.16.75-.32,1.5-1.08,1.66-.75.16-1.5-.32-1.66-1.08-.32-1.5-1.8-2.47-3.31-2.15-1.5.32-2.47,1.8-2.15,3.31.16.75-.32,1.5-1.08,1.66-.1.02-.2.03-.29.03Z"/>
    <path class="cls-1" d="M64.52,97.75c-.53,0-1.04-.31-1.28-.83-1.25-2.81.02-6.11,2.83-7.37,2.81-1.25,6.11.02,7.37,2.83.31.7,0,1.53-.71,1.84-.7.32-1.53,0-1.84-.71-.63-1.4-2.27-2.03-3.68-1.41-1.4.63-2.04,2.28-1.41,3.68.31.7,0,1.53-.71,1.84-.18.08-.38.12-.57.12Z"/>
    <path class="cls-1" d="M72.07,94.4c-.43,0-.86-.2-1.13-.58-.88-1.21-1.23-2.68-1-4.15.23-1.47,1.02-2.76,2.23-3.64,1.21-.88,2.68-1.23,4.15-1,1.47.23,2.77,1.03,3.64,2.23.45.62.31,1.5-.31,1.95-.62.45-1.5.31-1.95-.31-.44-.6-1.08-1-1.82-1.11-.73-.12-1.47.06-2.07.5-.6.44-1,1.08-1.11,1.82-.12.74.06,1.47.5,2.07.45.62.32,1.5-.31,1.95-.25.18-.54.27-.82.27Z"/>
    <path class="cls-1" d="M78.76,89.55c-.33,0-.67-.12-.93-.36-1.11-1-1.76-2.37-1.84-3.85-.08-1.49.43-2.92,1.43-4.02,2.06-2.29,5.59-2.47,7.88-.41.57.52.62,1.4.1,1.97-.52.57-1.4.62-1.97.1-1.14-1.03-2.91-.94-3.94.21-.5.55-.75,1.27-.71,2.01.04.74.36,1.43.92,1.92.57.52.62,1.4.1,1.97-.28.31-.66.46-1.04.46Z"/>
    <path class="cls-1" d="M84.3,83.42c-.24,0-.48-.06-.7-.19-1.29-.75-2.21-1.95-2.6-3.39-.39-1.44-.19-2.94.56-4.23.74-1.29,1.95-2.21,3.39-2.6,1.44-.38,2.94-.19,4.23.56.67.39.9,1.24.51,1.91-.39.67-1.24.9-1.91.51-.65-.37-1.4-.47-2.11-.28-.72.19-1.32.65-1.69,1.3-.37.64-.47,1.4-.28,2.11.19.72.65,1.32,1.3,1.69.67.39.9,1.24.51,1.91-.26.45-.73.7-1.21.7Z"/>
    <path class="cls-1" d="M88.44,76.27c-.14,0-.29-.02-.43-.07-2.93-.95-4.53-4.11-3.58-7.03.46-1.42,1.45-2.57,2.77-3.25,1.33-.68,2.84-.8,4.26-.34.73.24,1.13,1.03.9,1.76-.24.73-1.02,1.13-1.76.9-.71-.23-1.46-.17-2.13.17-.66.34-1.15.91-1.38,1.62-.47,1.46.33,3.04,1.79,3.51.73.24,1.13,1.03.9,1.76-.19.59-.74.96-1.33.96Z"/>
    <path class="cls-1" d="M91,68.41s-.1,0-.15,0c-1.48-.16-2.82-.88-3.75-2.04-.94-1.16-1.37-2.61-1.21-4.09.16-1.48.88-2.81,2.04-3.75,1.16-.94,2.61-1.37,4.09-1.21.77.08,1.32.77,1.24,1.54-.08.77-.76,1.31-1.54,1.24-.74-.08-1.47.14-2.04.61-.58.47-.94,1.13-1.02,1.87-.08.74.14,1.47.6,2.05.47.58,1.13.94,1.87,1.02.77.08,1.32.77,1.24,1.53-.08.72-.68,1.25-1.39,1.25Z"/>
    <path class="cls-1" d="M91.43,60.22c-1.27,0-2.5-.43-3.5-1.24-1.16-.94-1.88-2.27-2.04-3.75-.16-1.48.27-2.94,1.21-4.09.94-1.16,2.27-1.88,3.75-2.04.77-.07,1.45.48,1.54,1.24.08.77-.48,1.45-1.24,1.54-.74.08-1.41.44-1.88,1.02-.47.58-.68,1.3-.6,2.04.16,1.53,1.52,2.65,3.06,2.48.76-.07,1.45.48,1.53,1.24.08.77-.48,1.45-1.24,1.53-.2.02-.4.03-.59.03Z"/>
    <path class="cls-1" d="M89.72,52.19c-.87,0-1.73-.21-2.53-.61-1.33-.68-2.31-1.83-2.77-3.25-.46-1.42-.34-2.93.34-4.26.68-1.33,1.83-2.31,3.25-2.77.73-.24,1.52.16,1.76.9.24.73-.16,1.52-.9,1.76-.71.23-1.28.72-1.62,1.38-.34.66-.4,1.42-.17,2.13.23.71.72,1.28,1.38,1.62.66.34,1.42.4,2.13.17.74-.24,1.52.16,1.76.9.24.73-.16,1.52-.9,1.76-.57.18-1.15.28-1.73.28Z"/>
    <path class="cls-1" d="M86.4,44.68c-1.93,0-3.81-1-4.84-2.79-.75-1.29-.94-2.79-.56-4.23.39-1.44,1.31-2.64,2.6-3.39.67-.39,1.52-.16,1.91.51.39.67.16,1.52-.51,1.91-.64.37-1.11.97-1.3,1.69-.19.72-.09,1.47.28,2.11.77,1.33,2.48,1.79,3.81,1.02.67-.39,1.52-.16,1.91.51.39.67.16,1.52-.51,1.91-.88.51-1.83.75-2.78.75Z"/>
    <path class="cls-1" d="M81.56,38.03c-1.53,0-3.05-.62-4.15-1.84-1-1.11-1.5-2.54-1.43-4.03s.73-2.86,1.84-3.85c.57-.52,1.46-.47,1.97.1.52.57.47,1.46-.1,1.97-.55.5-.88,1.18-.92,1.92-.04.74.21,1.46.71,2.01.5.55,1.18.88,1.93.92.75.04,1.46-.21,2.01-.71.57-.52,1.46-.47,1.97.1.52.57.47,1.46-.1,1.97-1.06.96-2.4,1.43-3.73,1.43Z"/>
    <path class="cls-1" d="M75.45,32.54c-1.14,0-2.28-.35-3.27-1.06-2.49-1.81-3.04-5.31-1.23-7.79.45-.62,1.33-.76,1.95-.31.62.45.76,1.33.31,1.95-.9,1.24-.63,2.99.62,3.89,1.24.9,2.99.63,3.89-.62.45-.62,1.33-.76,1.95-.31.62.45.76,1.33.31,1.95-1.09,1.5-2.79,2.3-4.52,2.3Z"/>
    <path class="cls-1" d="M68.33,28.43c-.76,0-1.53-.16-2.26-.48-1.36-.61-2.4-1.71-2.94-3.1-.53-1.39-.49-2.91.11-4.27.31-.71,1.14-1.02,1.84-.71.7.31,1.02,1.14.71,1.84-.3.68-.32,1.44-.06,2.13.27.69.79,1.24,1.47,1.55,1.4.63,3.05,0,3.68-1.41.31-.7,1.14-1.02,1.84-.71.7.31,1.02,1.14.71,1.84-.92,2.07-2.97,3.31-5.1,3.31Z"/>
    <path class="cls-1" d="M60.54,25.9c-.39,0-.78-.04-1.17-.12-1.46-.31-2.71-1.17-3.52-2.42-.81-1.25-1.09-2.74-.78-4.2.16-.75.9-1.23,1.66-1.08.75.16,1.24.9,1.08,1.66-.32,1.5.64,2.99,2.15,3.31.73.15,1.47.02,2.1-.39.62-.41,1.05-1.03,1.21-1.76.16-.75.9-1.24,1.66-1.08.75.16,1.24.9,1.08,1.66-.31,1.46-1.17,2.71-2.42,3.52-.92.59-1.96.9-3.03.9Z"/>
  </g>
  <g>
    <path class="cls-1" d="M52.36,82.8c-13.26,0-24.05-10.79-24.05-24.05s10.79-24.05,24.05-24.05,24.05,10.79,24.05,24.05-10.79,24.05-24.05,24.05ZM52.36,37.5c-11.72,0-21.25,9.54-21.25,21.25s9.54,21.26,21.25,21.26,21.26-9.54,21.26-21.26-9.54-21.25-21.26-21.25Z"/>
    <path class="cls-1" d="M52.36,37.5c-3.08,0-5.58-2.5-5.58-5.58,0-.77.63-1.4,1.4-1.4s1.4.63,1.4,1.4c0,1.54,1.25,2.79,2.79,2.79s2.79-1.25,2.79-2.79c0-.77.63-1.4,1.4-1.4s1.4.63,1.4,1.4c0,3.08-2.5,5.58-5.58,5.58Z"/>
    <path class="cls-1" d="M44.06,38.81c-.87,0-1.73-.21-2.53-.61-1.33-.68-2.31-1.83-2.77-3.25-.24-.73.16-1.52.9-1.76.73-.24,1.52.16,1.76.9.23.71.72,1.28,1.38,1.62.66.34,1.42.4,2.13.17.71-.23,1.28-.72,1.62-1.38.34-.66.4-1.42.17-2.13-.24-.73.16-1.52.9-1.76.74-.24,1.52.16,1.76.9.46,1.42.34,2.93-.33,4.26-.68,1.33-1.83,2.31-3.25,2.77-.57.18-1.15.28-1.73.28Z"/>
    <path class="cls-1" d="M36.59,42.62c-1.73,0-3.43-.8-4.52-2.3-.45-.62-.31-1.5.31-1.95.63-.45,1.5-.31,1.95.31.9,1.24,2.65,1.52,3.89.62.6-.44,1-1.08,1.11-1.82.12-.74-.06-1.47-.5-2.07-.45-.62-.31-1.5.31-1.95.63-.45,1.5-.31,1.95.31,1.81,2.49,1.25,5.98-1.23,7.79-.99.72-2.14,1.06-3.27,1.06Z"/>
    <path class="cls-1" d="M30.64,48.56c-1.14,0-2.28-.35-3.27-1.06-.62-.45-.76-1.33-.31-1.95.45-.62,1.33-.76,1.95-.31.6.44,1.34.61,2.07.5s1.38-.51,1.82-1.11c.9-1.24.63-2.99-.62-3.89-.62-.45-.76-1.33-.31-1.95.45-.62,1.33-.76,1.95-.31,2.49,1.81,3.04,5.3,1.23,7.79-1.09,1.5-2.79,2.3-4.52,2.3Z"/>
    <path class="cls-1" d="M26.84,56.04c-.58,0-1.16-.09-1.73-.28-.73-.24-1.13-1.03-.9-1.76.24-.73,1.02-1.13,1.76-.9.71.23,1.46.17,2.13-.17.66-.34,1.15-.91,1.38-1.62.23-.71.17-1.46-.17-2.13-.34-.66-.91-1.15-1.62-1.38-.73-.24-1.14-1.03-.9-1.76.24-.73,1.03-1.14,1.76-.9,1.42.46,2.57,1.45,3.25,2.77.68,1.33.8,2.84.33,4.26-.46,1.42-1.45,2.57-2.77,3.25-.8.41-1.66.61-2.53.61Z"/>
    <path class="cls-1" d="M25.52,64.33c-.77,0-1.4-.63-1.4-1.4s.63-1.4,1.4-1.4c1.54,0,2.79-1.25,2.79-2.79s-1.25-2.79-2.79-2.79c-.77,0-1.4-.63-1.4-1.4s.63-1.4,1.4-1.4c3.08,0,5.58,2.5,5.58,5.58s-2.5,5.58-5.58,5.58Z"/>
    <path class="cls-1" d="M28.13,72.42c-.59,0-1.14-.37-1.33-.96-.24-.73.16-1.52.9-1.76,1.46-.48,2.26-2.05,1.79-3.51-.47-1.46-2.05-2.27-3.51-1.79-.73.24-1.52-.16-1.76-.9-.24-.73.16-1.52.9-1.76,2.92-.95,6.08.66,7.03,3.58.95,2.92-.66,6.08-3.58,7.03-.14.05-.29.07-.43.07Z"/>
    <path class="cls-1" d="M33.11,79.3c-.43,0-.86-.2-1.13-.58-.45-.62-.31-1.5.31-1.95,1.24-.9,1.52-2.65.62-3.89-.9-1.24-2.65-1.52-3.89-.62-.62.45-1.5.31-1.95-.31-.45-.62-.31-1.5.31-1.95,2.49-1.81,5.98-1.25,7.79,1.23,1.81,2.49,1.25,5.99-1.23,7.79-.25.18-.54.27-.82.27Z"/>
    <path class="cls-1" d="M39.97,84.32c-.28,0-.57-.09-.82-.27-.62-.45-.76-1.33-.31-1.95.44-.6.61-1.34.5-2.07-.12-.74-.51-1.38-1.11-1.82-.6-.44-1.34-.62-2.07-.5-.73.12-1.38.51-1.82,1.11-.45.62-1.33.76-1.95.31-.62-.45-.76-1.33-.31-1.95.88-1.21,2.17-2,3.64-2.23,1.47-.24,2.95.12,4.15,1,1.21.88,2,2.17,2.23,3.64.23,1.47-.12,2.95-1,4.15-.27.38-.7.58-1.13.58Z"/>
    <path class="cls-1" d="M48.04,86.96c-.14,0-.29-.02-.43-.07-.73-.24-1.13-1.03-.9-1.76.23-.71.17-1.46-.17-2.13-.34-.66-.91-1.15-1.62-1.38-.71-.23-1.46-.17-2.13.17-.66.34-1.15.91-1.38,1.62-.24.73-1.03,1.14-1.76.9-.73-.24-1.14-1.03-.9-1.76.46-1.42,1.45-2.57,2.77-3.25,1.33-.68,2.84-.8,4.26-.34,1.42.46,2.57,1.45,3.25,2.77.68,1.33.8,2.84.33,4.26-.19.59-.74.96-1.33.96Z"/>
    <path class="cls-1" d="M56.54,86.98c-.77,0-1.4-.63-1.4-1.4,0-1.54-1.25-2.79-2.79-2.79s-2.79,1.25-2.79,2.79c0,.77-.63,1.4-1.4,1.4s-1.4-.63-1.4-1.4c0-3.08,2.5-5.58,5.58-5.58s5.58,2.5,5.58,5.58c0,.77-.63,1.4-1.4,1.4Z"/>
    <path class="cls-1" d="M56.67,86.96c-.59,0-1.14-.37-1.33-.97-.46-1.42-.34-2.93.34-4.26.68-1.33,1.83-2.31,3.25-2.77,2.92-.95,6.08.66,7.03,3.58.24.73-.16,1.52-.9,1.76-.74.24-1.52-.16-1.76-.9-.47-1.46-2.05-2.26-3.51-1.79-1.46.47-2.26,2.05-1.79,3.51.24.73-.16,1.52-.9,1.76-.14.05-.29.07-.43.07Z"/>
    <path class="cls-1" d="M64.75,84.32c-.43,0-.86-.2-1.13-.58-.88-1.21-1.23-2.68-1-4.15.23-1.47,1.03-2.77,2.23-3.64,2.49-1.81,5.99-1.25,7.79,1.23.45.62.31,1.5-.31,1.95-.62.45-1.5.32-1.95-.31-.9-1.24-2.65-1.52-3.89-.62-.6.44-1,1.08-1.11,1.82-.12.74.06,1.47.5,2.07.45.62.31,1.5-.31,1.95-.25.18-.54.27-.82.27Z"/>
    <path class="cls-1" d="M71.61,79.3c-.28,0-.57-.09-.82-.27-2.49-1.81-3.04-5.3-1.23-7.79.88-1.21,2.17-2,3.64-2.23,1.47-.23,2.95.12,4.15,1,.62.45.76,1.33.31,1.95-.45.62-1.33.76-1.95.31-.6-.44-1.34-.61-2.07-.5-.74.12-1.38.51-1.82,1.11-.9,1.24-.63,2.99.62,3.89.62.45.76,1.33.31,1.95-.27.38-.7.58-1.13.58Z"/>
    <path class="cls-1" d="M76.59,72.42c-.14,0-.29-.02-.43-.07-2.93-.95-4.53-4.11-3.58-7.03.95-2.93,4.11-4.53,7.03-3.58.73.24,1.14,1.03.9,1.76-.24.73-1.03,1.14-1.76.9-.71-.23-1.46-.17-2.13.17-.66.34-1.15.91-1.38,1.62-.47,1.46.33,3.04,1.79,3.51.73.24,1.13,1.03.9,1.76-.19.59-.74.96-1.33.96Z"/>
    <path class="cls-1" d="M79.19,64.33c-3.08,0-5.58-2.5-5.58-5.58s2.5-5.58,5.58-5.58c.77,0,1.4.63,1.4,1.4s-.63,1.4-1.4,1.4c-1.54,0-2.79,1.25-2.79,2.79s1.25,2.79,2.79,2.79c.77,0,1.4.63,1.4,1.4s-.63,1.4-1.4,1.4Z"/>
    <path class="cls-1" d="M77.87,56.04c-.87,0-1.73-.21-2.53-.61-1.33-.68-2.31-1.83-2.77-3.25-.46-1.42-.34-2.93.34-4.26.68-1.33,1.83-2.31,3.25-2.77.73-.24,1.52.16,1.76.9.24.73-.16,1.52-.9,1.76-.71.23-1.28.72-1.62,1.38-.34.66-.4,1.42-.17,2.13.23.71.72,1.28,1.38,1.62.66.34,1.42.4,2.13.17.74-.24,1.52.16,1.76.9.24.73-.16,1.52-.9,1.76-.57.18-1.15.28-1.73.28Z"/>
    <path class="cls-1" d="M74.08,48.56c-.29,0-.59-.02-.88-.07-1.47-.23-2.77-1.03-3.64-2.23-.88-1.21-1.23-2.68-1-4.15.23-1.47,1.03-2.77,2.23-3.64.63-.45,1.5-.31,1.95.31.45.62.31,1.5-.31,1.95-.6.44-1,1.08-1.11,1.82-.12.74.06,1.47.5,2.07.44.6,1.08,1,1.82,1.11.73.12,1.47-.06,2.07-.5.62-.46,1.5-.32,1.95.31.45.62.32,1.5-.31,1.95-.96.7-2.1,1.07-3.27,1.07Z"/>
    <path class="cls-1" d="M68.12,42.62c-1.14,0-2.28-.35-3.27-1.06-2.49-1.81-3.04-5.3-1.23-7.79.45-.62,1.33-.76,1.95-.31.62.45.76,1.33.31,1.95-.9,1.24-.63,2.99.62,3.89,1.24.9,2.99.63,3.89-.62.45-.62,1.33-.76,1.95-.31.62.45.76,1.33.31,1.95-1.09,1.5-2.79,2.3-4.52,2.3Z"/>
    <path class="cls-1" d="M60.66,38.81c-.58,0-1.16-.09-1.73-.28-1.42-.46-2.57-1.45-3.25-2.77s-.8-2.84-.34-4.26c.24-.73,1.03-1.13,1.76-.9.73.24,1.14,1.03.9,1.76-.47,1.46.33,3.04,1.79,3.51,1.46.47,3.04-.33,3.51-1.79.24-.73,1.02-1.13,1.76-.9.73.24,1.13,1.03.9,1.76-.46,1.42-1.45,2.57-2.77,3.25-.8.41-1.66.61-2.53.61Z"/>
  </g>
  <path class="cls-1" d="M52.36,71.04c-6.74,0-12.22-5.48-12.22-12.22s5.48-12.22,12.22-12.22,12.22,5.48,12.22,12.22-5.48,12.22-12.22,12.22ZM52.36,49.4c-5.2,0-9.42,4.23-9.42,9.42s4.23,9.42,9.42,9.42,9.42-4.23,9.42-9.42-4.23-9.42-9.42-9.42Z"/>
  <path class="cls-1" d="M52.36,48.67c-3.08,0-5.58-2.5-5.58-5.58,0-.77.63-1.4,1.4-1.4s1.4.63,1.4,1.4c0,1.54,1.25,2.79,2.79,2.79s2.79-1.25,2.79-2.79c0-.77.63-1.4,1.4-1.4s1.4.63,1.4,1.4c0,3.08-2.5,5.58-5.58,5.58Z"/>
  <path class="cls-1" d="M44.5,50.77c-1.93,0-3.81-1-4.84-2.79-.39-.67-.16-1.52.51-1.91.67-.39,1.52-.16,1.91.51.77,1.33,2.47,1.79,3.81,1.02.64-.37,1.11-.97,1.3-1.69.19-.72.09-1.47-.28-2.11-.39-.67-.16-1.52.51-1.91.67-.39,1.52-.16,1.91.51.75,1.29.94,2.79.56,4.23-.39,1.44-1.31,2.64-2.6,3.39-.88.51-1.83.75-2.78.75Z"/>
  <path class="cls-1" d="M38.72,56.54c-.97,0-1.92-.25-2.78-.75-.67-.39-.9-1.24-.51-1.91.39-.67,1.24-.9,1.91-.51.65.37,1.4.47,2.11.28.72-.19,1.32-.65,1.69-1.3.77-1.33.31-3.04-1.02-3.81-.67-.39-.9-1.24-.51-1.91.39-.67,1.24-.9,1.91-.51,2.66,1.54,3.58,4.96,2.04,7.62-.74,1.29-1.95,2.21-3.39,2.6-.48.13-.97.19-1.45.19Z"/>
  <path class="cls-1" d="M36.62,64.41c-.77,0-1.4-.63-1.4-1.4s.63-1.4,1.4-1.4c1.54,0,2.79-1.25,2.79-2.79s-1.25-2.79-2.79-2.79c-.77,0-1.4-.63-1.4-1.4s.63-1.4,1.4-1.4c3.08,0,5.58,2.5,5.58,5.58s-2.5,5.58-5.58,5.58Z"/>
  <path class="cls-1" d="M40.82,71.71c-.48,0-.95-.25-1.21-.7-.39-.67-.16-1.52.51-1.91.64-.37,1.11-.97,1.3-1.69.19-.72.09-1.47-.28-2.11-.77-1.33-2.47-1.79-3.81-1.02-.67.39-1.52.16-1.91-.51-.39-.67-.16-1.52.51-1.91,2.66-1.54,6.08-.62,7.62,2.04.75,1.29.94,2.79.56,4.23-.39,1.44-1.31,2.64-2.6,3.39-.22.13-.46.19-.7.19Z"/>
  <path class="cls-1" d="M48.11,75.94c-.24,0-.48-.06-.7-.19-.67-.39-.9-1.24-.51-1.91.37-.64.47-1.4.28-2.11-.19-.72-.65-1.32-1.3-1.69-1.33-.77-3.04-.31-3.81,1.02-.39.67-1.24.9-1.91.51-.67-.39-.9-1.24-.51-1.91,1.54-2.66,4.96-3.58,7.62-2.04,1.29.75,2.21,1.95,2.6,3.39.39,1.44.19,2.94-.56,4.23-.26.45-.73.7-1.21.7Z"/>
  <path class="cls-1" d="M56.54,75.96c-.77,0-1.4-.63-1.4-1.4,0-1.54-1.25-2.79-2.79-2.79s-2.79,1.25-2.79,2.79c0,.77-.63,1.4-1.4,1.4s-1.4-.63-1.4-1.4c0-3.08,2.5-5.58,5.58-5.58s5.58,2.5,5.58,5.58c0,.77-.63,1.4-1.4,1.4Z"/>
  <path class="cls-1" d="M56.61,75.94c-.48,0-.95-.25-1.21-.7-1.54-2.66-.62-6.08,2.04-7.62,2.66-1.54,6.08-.62,7.62,2.04.39.67.16,1.52-.51,1.91-.67.39-1.52.16-1.91-.51-.77-1.33-2.47-1.79-3.81-1.02-1.33.77-1.79,2.48-1.02,3.81.39.67.16,1.52-.51,1.91-.22.13-.46.19-.7.19Z"/>
  <path class="cls-1" d="M63.9,71.71c-.24,0-.48-.06-.7-.19-2.66-1.54-3.58-4.96-2.04-7.62,1.54-2.66,4.96-3.58,7.62-2.04.67.39.9,1.24.51,1.91-.39.67-1.24.9-1.91.51-1.33-.77-3.04-.31-3.81,1.02-.77,1.33-.31,3.04,1.02,3.81.67.39.9,1.24.51,1.91-.26.45-.73.7-1.21.7Z"/>
  <path class="cls-1" d="M68.1,64.41c-3.08,0-5.58-2.5-5.58-5.58s2.5-5.58,5.58-5.58c.77,0,1.4.63,1.4,1.4s-.63,1.4-1.4,1.4c-1.54,0-2.79,1.25-2.79,2.79s1.25,2.79,2.79,2.79c.77,0,1.4.63,1.4,1.4s-.63,1.4-1.4,1.4Z"/>
  <path class="cls-1" d="M66,56.54c-.48,0-.97-.06-1.45-.19-1.44-.39-2.64-1.31-3.39-2.6-1.54-2.66-.62-6.08,2.04-7.62.67-.39,1.52-.16,1.91.51.39.67.16,1.52-.51,1.91-1.33.77-1.79,2.48-1.02,3.81.37.64.97,1.11,1.69,1.3.72.19,1.47.09,2.11-.28.67-.39,1.52-.16,1.91.51.39.67.16,1.52-.51,1.91-.86.5-1.81.75-2.78.75Z"/>
  <path class="cls-1" d="M60.22,50.78c-.97,0-1.92-.25-2.78-.75-2.66-1.54-3.58-4.96-2.04-7.62.38-.67,1.24-.9,1.91-.51.67.39.9,1.24.51,1.91-.77,1.33-.31,3.04,1.02,3.81.64.37,1.4.47,2.11.28.72-.19,1.32-.65,1.69-1.3.39-.67,1.24-.9,1.91-.51.67.39.9,1.24.51,1.91-.74,1.29-1.95,2.21-3.39,2.6-.48.13-.97.19-1.45.19Z"/>
</svg>