<svg enable-background="new 0 0 724.6 249.7" viewBox="0 0 724.6 249.7" xmlns="http://www.w3.org/2000/svg"><g fill="#fff"><path d="m37 107.2c0 4.9-4.9 9-11 9-6 0-11.1-4.2-11.1-9 0-5.2 5-9 11.1-9s11 3.9 11 9zm-1.5 27.7v72.5c-.1 2.6-2.3 4.6-4.9 4.5h-9.2c-2.6 0-4.7-2-4.9-4.5v-72.5c.1-2.6 2.3-4.6 4.9-4.5h9.2c2.6-.1 4.7 1.9 4.9 4.5zm22.4-2c10.4-3.3 21.2-4.9 32.1-4.9 22.9 0 38.7 7.5 38.7 25.4v53.9c-.1 2.6-2.3 4.6-4.9 4.5h-9.5c-2.6 0-4.7-2-4.9-4.5v-53.6c0-10.4-9.7-14.7-20.4-14.7-5.2 0-10.4.9-15.2 2.7v65.6c0 2.5-2.7 4.5-4.9 4.5h-9.5c-2.6 0-4.7-2-4.9-4.5v-69.8c0-2.1 1.4-4 3.4-4.6zm124.8 72.4v3.7c0 1.8-.3 3.2-2.7 3.9-2.6.7-5.3 1-8 1-18.6 0-25.8-11.1-25.8-22.1v-75.5c0-2.5 1.3-4.9 3.7-5.2l9.4-2.5c3.3-1 5.9-.7 5.9 3.2l.3 18.6h13.9c1.8 0 3.3 1.4 3.3 3.2v4c-.1 1.8-1.6 3.2-3.3 3.2h-14.2v50.1c0 6.5 4.2 11.4 12.4 11.4h1.8c1.7-.2 3.2 1.2 3.3 3zm86.7-70.4v69.8c0 2.1-1.2 4-3.2 4.9-7.5 2.7-18.9 4.7-32.8 4.7-25.1 0-36.2-10.7-36.2-28.3v-51.1c.1-2.6 2.3-4.6 4.9-4.5h9.2c2.6 0 4.7 2 4.9 4.5v52.1c0 8.4 5.9 15.2 18.1 15.2 7.2 0 12.7-1 16.2-2.7v-64.6c.1-2.6 2.3-4.6 4.9-4.5h9.2c2.5-.1 4.6 1.9 4.8 4.5zm40.5-27.7c0 4.9-4.9 9-10.9 9-5.9 0-11-4.2-11-9 0-5.2 5.2-9 11-9 6 0 10.9 3.9 10.9 9zm-1.2 27.7v72.5c0 2.5-2.7 4.5-4.9 4.5h-9.5c-2.6 0-4.7-2-4.9-4.5v-72.5c.1-2.6 2.3-4.6 4.9-4.5h9.5c2.2-.1 4.9 2 4.9 4.5zm57.4 70.4v3.7c0 1.8-.3 3.2-2.5 3.9-2.6.7-5.2 1-7.9 1-18.8 0-26-11.1-26-22.1v-75.5c0-2.5 1.3-4.9 3.5-5.2l9.7-2.5c3-.8 5.9-.7 5.9 3.2v18.6h14.2c1.7-.1 3.1 1.3 3.2 3v.2 4c.1 1.7-1.3 3.1-3 3.2-.1 0-.1 0-.2 0h-14.1v50.1c0 6.5 4 11.4 12.1 11.4h2c1.7-.1 3.1 1.3 3.1 3zm42.6 6.6-30.5-77c-.7-1.7.1-3.6 1.8-4.3.4-.2.9-.3 1.4-.2h12.1c2.2-.1 4.2 1.4 4.9 3.5l16.6 51.4c1.3 3.9 2.3 8 3 12.1h.3c.6-4.1 1.6-8.1 2.8-12.1l17.9-51.7c.7-2 2.7-3.4 4.9-3.2h9.4c2.3.3 4 2.3 3 4.9l-31 79.5-1.5 4.4c-3.9 10.7-12.4 19.1-23.1 22.9l-4.2 1.7c-2.1.8-4.4-.3-5.2-2.5 0 0 0 0 0-.1l-2.7-6.9c-.7-1.7.7-4.5 2.7-5.5l2.8-1c7.2-2.4 11.7-8.4 14.6-15.9z"/><path d="m513.8 144.6c3.7-3.7 12.9-.5 20.8 6.9 8 7.5 11.4 16.9 7.9 20.4-3.9 3.7-13.2.7-21.3-7-7.7-7.8-11.1-16.5-7.4-20.3zm65.6-91.6c5 20.4 6.7 42.2 12.4 52.9 7.7 14.9 25.6 11.7 40.9 9.9 14.9-2 30.6-5.4 41.9 2.8 13.4 9.7 15.4 32.8 10.5 55.2-5 22.4-16.1 44.4-29.3 49.7-6.9 2.7-28.6-.7-50.4-6.5-21.4-5.9-40.7-12.6-43.5-21.4-3.3-10.4 4.9-21.8 12.1-31.1 7.2-9.5 18.1-27.1 13.9-44.9-3-13.4-15.7-26.1-24.6-44.9-8.9-18.6-17.1-43-8.9-51.1 10-9.6 19.7 7.3 25 29.4zm41.2-17.2c3 19.9 5.9 52.9-4.9 51.7-7.2-.8-14.2-25.8-17.6-46.2-4.2-26.6-2.8-39.8 5.2-41.2 9-1.5 14.5 15.6 17.3 35.7zm43.6 16.5c-6.4 34.5-10.9 46.7-17.7 45.5-6.5-1.2-7.7-12.1-4-45.5 2.5-21.8 6.5-40.2 16.2-39.3 9.1.8 9.1 19.6 5.5 39.3zm30.6 29.7c-5.2 10.7-14.9 25.8-20.8 20.4-5.2-4.7 7.7-29 12.2-36.3 3.5-5.7 5.2-6.9 9.2-6.5 7.1 1.6 5.6 9.3-.6 22.4z"/></g></svg>